inDegrees=yes
name=ik_S56_A01_T01
DataType=double
version=3
OpenSimVersion=4.3-2021-08-27-4bc7ad9
endheader
time	pelvis_tilt	pelvis_list	pelvis_rotation	pelvis_tx	pelvis_ty	pelvis_tz	hip_flexion_r	hip_adduction_r	hip_rotation_r	knee_angle_r	knee_angle_r_beta	ankle_angle_r	subtalar_angle_r	mtp_angle_r	hip_flexion_l	hip_adduction_l	hip_rotation_l	knee_angle_l	knee_angle_l_beta	ankle_angle_l	subtalar_angle_l	mtp_angle_l	lumbar_extension	lumbar_bending	lumbar_rotation	arm_flex_r	arm_add_r	arm_rot_r	elbow_flex_r	pro_sup_r	wrist_flex_r	wrist_dev_r	arm_flex_l	arm_add_l	arm_rot_l	elbow_flex_l	pro_sup_l	wrist_flex_l	wrist_dev_l
9.079999999999895	-2.590380849100567	0.270221366059999	95.42812324211057	0	0.9399999999999999	0	14.74574343370003	-5.961671505575364	-0.1787796476552621	57.08985658681435	0.9964059669312824	0	0	0	5.089794526668391	8.140772208934948	-2.687693527558682	9.221386475104934	0.1609435555894552	0	0	0	0	0	0	32.75840728060278	-32.75840728060279	4.465129668194091	77.42260820062795	85.53487058136116	0	0	32.75840728060278	-32.75840728060279	4.465129668194091	77.42260820062795	85.53487058126049	0	0
9.099999999999895	-2.03111900642985	0.8815094312186271	95.64629557533499	0	0.9399999999999999	0	15.52944684256773	-5.454598927321062	1.138599061783733	52.87112064644706	0.922775134499654	0	0	0	2.1499764635035	7.710258218930352	-3.554247005059885	8.393180917110614	0.1464886417191375	0	0	0	0	0	0	32.79004522294861	-32.79004522294861	4.467520995078318	77.45660182853591	85.5324792545963	0	0	32.79004522294861	-32.79004522294861	4.467520995078318	77.45660182853591	85.53247925449602	0	0
9.119999999999894	-2.043660256660121	0.8948501739813892	95.61505396510712	0	0.9399999999999999	0	16.61961041652755	-5.259533372810296	2.733918204032219	44.44772253127519	0.7757591031836203	0	0	0	2.14600518029849	7.679274393582956	-3.727552187832027	9.502929680217106	0.1658574115052803	0	0	0	0	0	0	32.90166164700559	-32.9016616470056	4.475773332871722	77.57385624151644	85.5242269172133	0	0	32.90166164700559	-32.9016616470056	4.475773332871722	77.57385624151644	85.52422691711455	0	0
9.139999999999894	-0.7698341357822731	1.5176336238821	96.70673196104224	0	0.9399999999999999	0	16.00866914443416	-4.213237647641376	1.293653242656284	41.08491538230159	0.7170670463244275	0	0	0	-0.5942277907475852	6.285193465370935	-2.179700424091348	6.913926736482777	0.1206707857932908	0	0	0	0	0	0	32.90661298749157	-32.90661298749158	4.47619911030642	77.57992358271194	85.5238011398003	0	0	32.90661298749157	-32.90661298749158	4.47619911030642	77.57992358271194	85.52380113970163	0	0
9.159999999999894	-0.4280141213563901	1.312907360119729	97.64890776602151	0	0.9399999999999999	0	16.7788625036464	-4.240012870874181	1.300387768491621	41.53372188917475	0.7249001975737388	0	0	0	-1.520715342041376	5.789676756374338	-0.9581632452647003	5.677359177749559	0.0990886104700478	0	0	0	0	0	0	32.90923795707605	-32.90923795707606	4.476426166688787	77.58315948427531	85.52357408342948	0	0	32.90923795707605	-32.90923795707606	4.476426166688787	77.58315948427531	85.52357408333089	0	0
9.179999999999893	-0.4044930379965441	1.215034839547517	97.98978201672011	0	0.9399999999999999	0	16.85447297940137	-3.979859617957804	1.734228833672001	28.29202956177151	0.4937890679244814	0	0	0	-2.502438664396662	5.631991678530301	-0.3096188017513505	5.351894518727331	0.09340818057122925	0	0	0	0	0	0	33.08386104978372	-33.08386104978372	4.489162444536827	77.76406802162005	85.5108378062131	0	0	33.08386104978372	-33.08386104978372	4.489162444536827	77.76406802162005	85.5108378061169	0	0
9.199999999999893	-0.5680633432908602	0.8019539450129286	99.13925426445668	0	0.9399999999999999	0	17.55145845965358	-4.30654423000411	1.161517438381508	22.02214848162389	0.3843589993674069	0	0	0	-3.329934200239858	5.719860521858587	1.145616696898499	5.233903751625562	0.09134885319834957	0	0	0	0	0	0	33.09997941432723	-33.09997941432724	4.490384528064773	77.78143694821112	85.50961572274603	0	0	33.09997941432723	-33.09997941432724	4.490384528064773	77.78143694821112	85.50961572265007	0	0
9.219999999999892	-0.6012923705851836	0.8166231377827131	99.1318634169504	0	0.9399999999999999	0	17.57667441600508	-3.350103243862799	-0.2838097727872873	15.43519625555478	0.269394995350931	0	0	0	-4.540940382295197	5.678005071218396	1.266912167653801	4.92935566213007	0.08603348630599487	0	0	0	0	0	0	33.08082916635845	-33.08082916635846	4.489085238485742	77.76300741432338	85.51091501226136	0	0	33.08082916635845	-33.08082916635846	4.489085238485742	77.76300741432338	85.51091501216516	0	0
9.239999999999892	-0.7977900693364391	0.4122107116573033	99.49896322132295	0	0.9399999999999999	0	16.94814863736312	-3.425744405179145	-1.303458032831115	1.791144704696594	0.03126137247661711	0	0	0	-5.515460940580827	5.782627575746761	1.823961243055019	3.918356362453955	0.06838821979128984	0	0	0	0	0	0	33.03045490700848	-33.03045490700849	4.485583618542468	77.71331343739553	85.51441663203231	0	0	33.03045490700848	-33.03045490700849	4.485583618542468	77.71331343739553	85.51441663193538	0	0
9.259999999999891	-0.9586124383972369	0.1413753791391414	99.54222026780978	0	0.9399999999999999	0	16.3716668969416	-3.721549911085535	-1.398754039967299	-2.668348091821469	-0.0465714597915926	0	0	0	-7.957888504418615	5.799313022615785	2.476471788722004	2.21961789671956	0.03873964043394777	0	0	0	0	0	0	32.88834900415132	-32.88834900415132	4.475410045990136	77.56885717688991	85.52459020408158	0	0	32.88834900415132	-32.88834900415132	4.475410045990136	77.56885717688991	85.52459020398277	0	0
9.279999999999891	-1.211548681743245	-0.1327702317759467	99.57378337493452	0	0.9399999999999999	0	16.21197196902025	-4.646060828006279	-3.482230047008963	-9.861901783274416	-0.1721226566264388	0	0	0	-9.17082872404187	6.029141451384104	2.583155591583903	1.74149275144208	0.03039478241227953	0	0	0	0	0	0	32.81388954666015	-32.81388954666016	4.470107757722475	77.49357878023145	85.52989249208731	0	0	32.81388954666015	-32.81388954666016	4.470107757722475	77.49357878023145	85.52989249198748	0	0
9.299999999999891	-1.553154141606392	-0.4115590860246957	99.58951624150477	0	0.9399999999999999	0	16.74183940240447	-5.01012368971126	-3.656927188107483	-9.938505276458967	-0.1734596398010383	0	0	0	-10.27844102556863	6.257272983029414	2.456266927950162	1.512452802028108	0.02639728117640445	0	0	0	0	0	0	32.8189983644982	-32.8189983644982	4.47054744317053	77.49984469269772	85.52945280666165	0	0	32.8189983644982	-32.8189983644982	4.47054744317053	77.49984469269772	85.52945280656191	0	0
9.31999999999989	-1.977423756163708	-0.6651867959438149	99.77593467827649	0	0.9399999999999999	0	17.24539023181667	-4.5552716914152	-4.532817051888337	-9.957516867955523	-0.1737914546686973	0	0	0	-10.17527386602602	6.636026504542825	2.605573664096502	2.678210229731616	0.04674358656941043	0	0	0	0	0	0	32.82437039210291	-32.82437039210291	4.471011533941973	77.50645887488353	85.52898871591388	0	0	32.82437039210291	-32.82437039210291	4.471011533941973	77.50645887488353	85.52898871581419	0	0
9.33999999999989	-2.425530161791162	-0.8766019976617537	100.1167264701394	0	0.9399999999999999	0	17.72049535376124	-4.679237115261275	-4.217496457376436	-9.961492114502258	-0.1738608358095164	0	0	0	-11.22367951582499	6.811893834213773	2.915135094092375	3.322004801222063	0.05797992154838474	0	0	0	0	0	0	32.82746686514401	-32.82746686514401	4.471279156399858	77.51027302436047	85.52872109346964	0	0	32.82746686514401	-32.82746686514401	4.471279156399858	77.51027302436047	85.52872109336998	0	0
